<svg width="361.6100219726562px" height="126.56000366210937px" xmlns="http://www.w3.org/2000/svg" viewBox="69.19498901367189 11.719998168945317 361.6100219726562 126.56000366210937" style="background: rgba(0, 0, 0, 0);" preserveAspectRatio="xMidYMid"><defs><linearGradient id="editing-sticker-gradient" x1="0.5" y1="0.2" x2="0.5" y2="0.8"><stop offset="0" stop-color="#fd9"></stop><stop offset="1" stop-color="#9df"></stop></linearGradient><filter id="editing-sticker" x="-100%" y="-100%" width="300%" height="300%"><feMorphology operator="erode" radius="1" in="SourceAlpha" result="alpha-erode"></feMorphology><feConvolveMatrix order="3,3" divisor="1" kernelMatrix="0 1 0 1 1 1 0 1 0" in="alpha-erode" result="alpha-round"></feConvolveMatrix><feMorphology operator="dilate" radius="3.5" in="alpha-round" result="dilate-shadow"></feMorphology><feGaussianBlur in="dilate-shadow" stdDeviation="1.5" result="shadow"></feGaussianBlur><feFlood flood-color="#fff" result="flood-sticker"></feFlood><feComposite operator="in" in="flood-sticker" in2="alpha-round" result="comp-sticker"></feComposite><feMorphology operator="dilate" radius="3" in="comp-sticker" result="morph-sticker"></feMorphology><feConvolveMatrix order="3,3" divisor="1" kernelMatrix="0 1 0 1 1 1 0 1 0" in="morph-sticker" result="sticker"></feConvolveMatrix><feMerge><feMergeNode in="shadow"></feMergeNode><feMergeNode in="sticker"></feMergeNode><feMergeNode in="SourceGraphic"></feMergeNode></feMerge></filter></defs><g filter="url(#editing-sticker)"><g transform="translate(121.29501628875732, 98.90500450134277)"><path d="M43.07 0L37.89 0L27.65-14.40L27.65-14.40Q25.92-14.21 24.06-14.21L24.06-14.21L12.03-14.21L12.03 0L7.30 0L7.30-44.80L24.06-44.80L24.06-44.80Q32.64-44.80 37.50-40.70L37.50-40.70L37.50-40.70Q42.37-36.61 42.37-29.44L42.37-29.44L42.37-29.44Q42.37-24.19 39.71-20.58L39.71-20.58L39.71-20.58Q37.06-16.96 32.13-15.36L32.13-15.36L43.07 0ZM23.94-18.24L23.94-18.24Q30.59-18.24 34.11-21.18L34.11-21.18L34.11-21.18Q37.63-24.13 37.63-29.44L37.63-29.44L37.63-29.44Q37.63-34.88 34.11-37.79L34.11-37.79L34.11-37.79Q30.59-40.70 23.94-40.70L23.94-40.70L12.03-40.70L12.03-18.24L23.94-18.24ZM81.98-16.83L81.92-15.42L53.76-15.42L53.76-15.42Q54.14-10.18 57.79-6.94L57.79-6.94L57.79-6.94Q61.44-3.71 67.01-3.71L67.01-3.71L67.01-3.71Q70.14-3.71 72.77-4.83L72.77-4.83L72.77-4.83Q75.39-5.95 77.31-8.13L77.31-8.13L79.87-5.18L79.87-5.18Q77.63-2.50 74.27-1.09L74.27-1.09L74.27-1.09Q70.91 0.32 66.88 0.32L66.88 0.32L66.88 0.32Q61.70 0.32 57.70-1.89L57.70-1.89L57.70-1.89Q53.70-4.10 51.46-8L51.46-8L51.46-8Q49.22-11.90 49.22-16.83L49.22-16.83L49.22-16.83Q49.22-21.76 51.36-25.66L51.36-25.66L51.36-25.66Q53.50-29.57 57.25-31.74L57.25-31.74L57.25-31.74Q60.99-33.92 65.66-33.92L65.66-33.92L65.66-33.92Q70.34-33.92 74.05-31.74L74.05-31.74L74.05-31.74Q77.76-29.57 79.87-25.70L79.87-25.70L79.87-25.70Q81.98-21.82 81.98-16.83L81.98-16.83ZM65.66-30.02L65.66-30.02Q60.80-30.02 57.50-26.91L57.50-26.91L57.50-26.91Q54.21-23.81 53.76-18.82L53.76-18.82L77.63-18.82L77.63-18.82Q77.18-23.81 73.89-26.91L73.89-26.91L73.89-26.91Q70.59-30.02 65.66-30.02L65.66-30.02ZM108.42-33.92L108.42-33.92Q114.75-33.92 118.50-30.24L118.50-30.24L118.50-30.24Q122.24-26.56 122.24-19.52L122.24-19.52L122.24 0L117.70 0L117.70-19.07L117.70-19.07Q117.70-24.32 115.07-27.07L115.07-27.07L115.07-27.07Q112.45-29.82 107.58-29.82L107.58-29.82L107.58-29.82Q102.14-29.82 98.98-26.59L98.98-26.59L98.98-26.59Q95.81-23.36 95.81-17.66L95.81-17.66L95.81 0L91.26 0L91.26-33.66L95.62-33.66L95.62-27.46L95.62-27.46Q97.47-30.53 100.77-32.22L100.77-32.22L100.77-32.22Q104.06-33.92 108.42-33.92L108.42-33.92ZM150.72-5.31L152.32-2.05L152.32-2.05Q151.04-0.90 149.15-0.29L149.15-0.29L149.15-0.29Q147.26 0.32 145.22 0.32L145.22 0.32L145.22 0.32Q140.48 0.32 137.92-2.24L137.92-2.24L137.92-2.24Q135.36-4.80 135.36-9.47L135.36-9.47L135.36-29.82L129.34-29.82L129.34-33.66L135.36-33.66L135.36-41.02L139.90-41.02L139.90-33.66L150.14-33.66L150.14-29.82L139.90-29.82L139.90-9.73L139.90-9.73Q139.90-6.72 141.41-5.15L141.41-5.15L141.41-5.15Q142.91-3.58 145.73-3.58L145.73-3.58L145.73-3.58Q147.14-3.58 148.45-4.03L148.45-4.03L148.45-4.03Q149.76-4.48 150.72-5.31L150.72-5.31ZM172.35-33.92L172.35-33.92Q178.94-33.92 182.46-30.62L182.46-30.62L182.46-30.62Q185.98-27.33 185.98-20.86L185.98-20.86L185.98 0L181.63 0L181.63-5.25L181.63-5.25Q180.10-2.62 177.12-1.15L177.12-1.15L177.12-1.15Q174.14 0.32 170.05 0.32L170.05 0.32L170.05 0.32Q164.42 0.32 161.09-2.37L161.09-2.37L161.09-2.37Q157.76-5.06 157.76-9.47L157.76-9.47L157.76-9.47Q157.76-13.76 160.86-16.38L160.86-16.38L160.86-16.38Q163.97-19.01 170.75-19.01L170.75-19.01L181.44-19.01L181.44-21.06L181.44-21.06Q181.44-25.41 179.01-27.68L179.01-27.68L179.01-27.68Q176.58-29.95 171.90-29.95L171.90-29.95L171.90-29.95Q168.70-29.95 165.76-28.90L165.76-28.90L165.76-28.90Q162.82-27.84 160.70-25.98L160.70-25.98L158.66-29.38L158.66-29.38Q161.22-31.55 164.80-32.74L164.80-32.74L164.80-32.74Q168.38-33.92 172.35-33.92L172.35-33.92ZM170.75-3.26L170.75-3.26Q174.59-3.26 177.34-5.02L177.34-5.02L177.34-5.02Q180.10-6.78 181.44-10.11L181.44-10.11L181.44-15.62L170.88-15.62L170.88-15.62Q162.24-15.62 162.24-9.60L162.24-9.60L162.24-9.60Q162.24-6.66 164.48-4.96L164.48-4.96L164.48-4.96Q166.72-3.26 170.75-3.26L170.75-3.26ZM198.34 0L198.34-47.49L202.88-47.49L202.88 0L198.34 0ZM250.11 0L244.61 0L230.14-19.71L215.74 0L210.30 0L227.33-23.04L211.39-44.80L216.83-44.80L230.34-26.50L243.78-44.80L248.90-44.80L233.02-23.17L250.11 0Z" fill="url(#editing-sticker-gradient)" stroke="#000" stroke-width="2.5"></path></g></g><style>text {
  font-size: 64px;
  font-family: Arial Black;
  dominant-baseline: central;
  text-anchor: middle;
}</style></svg>